# xmcd
#
# Track frame offsets:
#	150
#	30655
#	57557
#	88897
#	98592
#
# Disc length: 2067 seconds
#
# Revision: 2
# Processed by: cddbd v1.5.2PL0 Copyright (c) Steve Scherf et al.
# Submitted via: audiograbber 1.83.01
#
DISCID=3a081105
DTITLE=Hansi Biebl Band - Savannah
DYEAR=1975
DGENRE=Blues
TTITLE0=Klunken-Soul
TTITLE1=15 Uhr 16
TTITLE2=Savannah
TTITLE3=E-Dur Blues
TTITLE4=Ouvertüre - Rocking Changes
EXTD=
EXTT0=
EXTT1=
EXTT2=
EXTT3=
EXTT4=
PLAYORDER=
